<svg width="20" height="20" viewBox="0 0 20 20" fill="none" xmlns="http://www.w3.org/2000/svg">
<rect width="20" height="20" rx="2" fill="#6CA89C"/>
<path fill-rule="evenodd" clip-rule="evenodd" d="M6.56691 5.91965C6.4763 5.91946 6.38895 5.92971 6.30595 5.94921C6.19216 5.69843 6.04187 5.47343 5.87092 5.30249C5.58078 5.01235 5.12319 4.89795 4.48975 4.89795V5.91836C4.87671 5.91836 5.09939 5.97403 5.14939 6.02402C5.34223 6.21687 5.51015 6.6087 5.51015 6.93877L5.51528 7.01092L6.01522 10.5105C5.1787 10.5539 4.53066 11.2035 4.49037 12.0155L4.48975 12.551C4.53914 13.3898 5.18503 14.035 5.9914 14.0808L6.10722 14.081C6.31716 14.6758 6.88429 15.102 7.55097 15.102C8.21741 15.102 8.78437 14.6761 8.99449 14.0816H10.1891C10.3992 14.6761 10.9662 15.102 11.6326 15.102C12.4779 15.102 13.1632 14.4168 13.1632 13.5714C13.1632 12.7261 12.4779 12.0408 11.6326 12.0408C10.9662 12.0408 10.3992 12.4667 10.1891 13.0612H8.99449C8.78437 12.4667 8.21741 12.0408 7.55097 12.0408C6.88453 12.0408 6.31757 12.4667 6.10745 13.0612H6.02036C5.76016 13.0456 5.52675 12.8124 5.50924 12.5205L5.51015 12.0408C5.52391 11.7762 5.75572 11.5444 6.04564 11.53L7.05285 11.5302L7.06015 11.5306H12.2024L12.2777 11.5067C12.6646 11.384 12.9743 11.0927 13.1209 10.7156L13.1746 10.6092L13.3493 10.2632C13.5299 9.90505 13.7106 9.54629 13.8867 9.19581C14.3179 8.33727 14.5891 7.79165 14.6492 7.65767C14.9576 6.96961 14.3328 6.44002 13.6942 6.42875L6.56691 5.91965ZM12.0253 10.5102H7.09845C7.06569 10.5011 7.04072 10.4734 7.03584 10.4388L6.53589 6.93917L13.6191 7.44641C13.4952 7.69917 13.2699 8.15062 12.9749 8.73782L12.9675 8.75254C12.7992 9.08771 12.6187 9.44597 12.4383 9.80363L12.2639 10.1492L12.1978 10.28L12.1729 10.3379C12.1462 10.4121 12.0933 10.4732 12.0253 10.5102ZM11.6328 14.0816C11.9145 14.0816 12.143 13.8532 12.143 13.5714C12.143 13.2897 11.9145 13.0612 11.6328 13.0612C11.351 13.0612 11.1226 13.2897 11.1226 13.5714C11.1226 13.8532 11.351 14.0816 11.6328 14.0816ZM8.06118 13.5714C8.06118 13.8532 7.83275 14.0816 7.55098 14.0816C7.2692 14.0816 7.04077 13.8532 7.04077 13.5714C7.04077 13.2897 7.2692 13.0612 7.55098 13.0612C7.83275 13.0612 8.06118 13.2897 8.06118 13.5714Z" fill="#FAFAFA"/>
</svg>
